<mxfile host="app.diagrams.net" modified="2022-11-01T19:29:52.635Z" agent="5.0 (X11)" etag="Yqh03hFBDXg-ApWahE7b" version="20.5.1" type="github">
  <diagram name="Page-1" id="c9db0220-8083-56f3-ca83-edcdcd058819">
    <mxGraphModel dx="1304" dy="2519.5" grid="1" gridSize="10" guides="1" tooltips="1" connect="1" arrows="1" fold="1" page="1" pageScale="1.5" pageWidth="826" pageHeight="1169" background="#ffffff" math="0" shadow="0">
      <root>
        <mxCell id="0" style=";html=1;" />
        <mxCell id="1" style=";html=1;" parent="0" />
        <mxCell id="kfiKCnte5NvMrX8001Sx-1" value="logo" style="html=1;shadow=0;dashed=0;fillColor=#000000;strokeColor=none;fontSize=16;fontColor=#ffffff;align=left;spacing=15;" vertex="1" parent="1">
          <mxGeometry x="80" y="-1250" width="1040" height="90" as="geometry" />
        </mxCell>
        <mxCell id="kfiKCnte5NvMrX8001Sx-2" value="Historia    &#xa;" style="fillColor=none;strokeColor=none;fontSize=14;fontColor=#ffffff;align=center;" vertex="1" parent="kfiKCnte5NvMrX8001Sx-1">
          <mxGeometry width="90" height="60" relative="1" as="geometry">
            <mxPoint x="170" y="25" as="offset" />
          </mxGeometry>
        </mxCell>
        <mxCell id="kfiKCnte5NvMrX8001Sx-3" value="Store" style="fillColor=none;strokeColor=none;fontSize=14;fontColor=#9A9DA0;align=center;" vertex="1" parent="kfiKCnte5NvMrX8001Sx-1">
          <mxGeometry width="70" height="40" relative="1" as="geometry">
            <mxPoint x="260" y="25" as="offset" />
          </mxGeometry>
        </mxCell>
        <mxCell id="kfiKCnte5NvMrX8001Sx-4" value="Servicios" style="fillColor=none;strokeColor=none;fontSize=14;fontColor=#9A9DA0;align=center;spacingRight=0;" vertex="1" parent="kfiKCnte5NvMrX8001Sx-1">
          <mxGeometry width="80" height="40" relative="1" as="geometry">
            <mxPoint x="330" y="25" as="offset" />
          </mxGeometry>
        </mxCell>
        <mxCell id="kfiKCnte5NvMrX8001Sx-5" value="Turnos" style="fillColor=none;strokeColor=none;fontSize=14;fontColor=#9A9DA0;align=center;" vertex="1" parent="kfiKCnte5NvMrX8001Sx-1">
          <mxGeometry width="80" height="40" relative="1" as="geometry">
            <mxPoint x="420" y="25" as="offset" />
          </mxGeometry>
        </mxCell>
        <mxCell id="kfiKCnte5NvMrX8001Sx-6" value="Search" style="html=1;shadow=0;dashed=0;shape=mxgraph.bootstrap.rrect;rSize=5;fontSize=14;fontColor=#1CA5B8;strokeColor=#1CA5B8;fillColor=none;" vertex="1" parent="kfiKCnte5NvMrX8001Sx-1">
          <mxGeometry x="1" width="70" height="40" relative="1" as="geometry">
            <mxPoint x="-80" y="20" as="offset" />
          </mxGeometry>
        </mxCell>
        <mxCell id="kfiKCnte5NvMrX8001Sx-7" value="Search" style="html=1;shadow=0;dashed=0;shape=mxgraph.bootstrap.rrect;rSize=5;fontSize=14;fontColor=#6C767D;strokeColor=#CED4DA;fillColor=#ffffff;align=left;spacing=10;" vertex="1" parent="kfiKCnte5NvMrX8001Sx-1">
          <mxGeometry x="1" width="180" height="40" relative="1" as="geometry">
            <mxPoint x="-280" y="20" as="offset" />
          </mxGeometry>
        </mxCell>
        <mxCell id="kfiKCnte5NvMrX8001Sx-8" value="" style="html=1;shadow=0;dashed=0;shape=mxgraph.bootstrap.rrect;rSize=5;strokeColor=#DFDFDF;html=1;whiteSpace=wrap;fillColor=#ffffff;fontColor=#000000;verticalAlign=bottom;align=left;spacing=20;fontSize=14;" vertex="1" parent="1">
          <mxGeometry x="80" y="-1160" width="1040" height="500" as="geometry" />
        </mxCell>
        <mxCell id="kfiKCnte5NvMrX8001Sx-9" value="logo" style="html=1;shadow=0;dashed=0;shape=mxgraph.bootstrap.topButton;rSize=5;perimeter=none;whiteSpace=wrap;fillColor=#868E96;strokeColor=#DFDFDF;fontColor=#DEE2E6;resizeWidth=1;fontSize=18;" vertex="1" parent="kfiKCnte5NvMrX8001Sx-8">
          <mxGeometry width="1040" height="500" relative="1" as="geometry" />
        </mxCell>
        <mxCell id="kfiKCnte5NvMrX8001Sx-11" value="acceder" style="html=1;shadow=0;dashed=0;shape=mxgraph.bootstrap.rrect;rSize=5;strokeColor=none;strokeWidth=1;fillColor=#6C767D;fontColor=#FFFFFF;whiteSpace=wrap;align=center;verticalAlign=middle;spacingLeft=0;fontStyle=0;fontSize=16;spacing=5;" vertex="1" parent="kfiKCnte5NvMrX8001Sx-8">
          <mxGeometry x="100" y="350" width="800" height="40" as="geometry" />
        </mxCell>
        <mxCell id="kfiKCnte5NvMrX8001Sx-10" value="" style="html=1;shadow=0;dashed=0;shape=mxgraph.bootstrap.checkbox2;labelPosition=right;verticalLabelPosition=middle;align=left;verticalAlign=middle;gradientColor=#DEDEDE;fillColor=#EDEDED;checked=0;spacing=5;checkedFill=#0085FC;checkedStroke=#ffffff;sketch=0;" vertex="1" parent="1">
          <mxGeometry x="80" y="820" width="1080" height="270" as="geometry" />
        </mxCell>
        <mxCell id="kfiKCnte5NvMrX8001Sx-14" value="" style="html=1;shadow=0;dashed=0;shape=mxgraph.bootstrap.rrect;rSize=5;strokeColor=#DFDFDF;html=1;whiteSpace=wrap;fillColor=#ffffff;fontColor=#000000;verticalAlign=bottom;align=left;spacing=20;fontSize=14;" vertex="1" parent="1">
          <mxGeometry x="920" y="-650" width="250" height="550" as="geometry" />
        </mxCell>
        <mxCell id="kfiKCnte5NvMrX8001Sx-15" value="Image cap" style="html=1;shadow=0;dashed=0;shape=mxgraph.bootstrap.topButton;rSize=5;perimeter=none;whiteSpace=wrap;fillColor=#868E96;strokeColor=#DFDFDF;fontColor=#DEE2E6;resizeWidth=1;fontSize=18;" vertex="1" parent="kfiKCnte5NvMrX8001Sx-14">
          <mxGeometry width="510" height="370" relative="1" as="geometry">
            <mxPoint x="-290" y="10" as="offset" />
          </mxGeometry>
        </mxCell>
        <mxCell id="kfiKCnte5NvMrX8001Sx-16" value="Quienes somos" style="text;html=1;strokeColor=none;fillColor=none;align=center;verticalAlign=middle;whiteSpace=wrap;rounded=0;" vertex="1" parent="1">
          <mxGeometry x="135" y="-650" width="480" height="50" as="geometry" />
        </mxCell>
        <mxCell id="kfiKCnte5NvMrX8001Sx-18" value="&lt;p&gt;Lorem ipsum dolor sit amet, consectetur adipisicing elit, sed do eiusmod tempor incididunt ut labore et dolore magna aliqua.&lt;/p&gt;" style="text;html=1;strokeColor=none;fillColor=none;spacing=5;spacingTop=-20;whiteSpace=wrap;overflow=hidden;rounded=0;" vertex="1" parent="1">
          <mxGeometry x="145" y="-610" width="470" height="360" as="geometry" />
        </mxCell>
        <mxCell id="kfiKCnte5NvMrX8001Sx-24" value="Nuestra Historia" style="html=1;shadow=0;dashed=0;shape=mxgraph.bootstrap.rrect;rSize=5;strokeColor=none;strokeWidth=1;fillColor=#6C767D;fontColor=#FFFFFF;whiteSpace=wrap;align=center;verticalAlign=middle;spacingLeft=0;fontStyle=0;fontSize=16;spacing=5;" vertex="1" parent="1">
          <mxGeometry x="230" y="-370" width="200" height="50" as="geometry" />
        </mxCell>
        <mxCell id="kfiKCnte5NvMrX8001Sx-25" value="Some quick example text to build on the card title and make up the bulk of the card&#39;s content." style="html=1;shadow=0;dashed=0;shape=mxgraph.bootstrap.rrect;rSize=5;strokeColor=#DFDFDF;html=1;whiteSpace=wrap;fillColor=#ffffff;fontColor=#000000;verticalAlign=bottom;align=left;spacing=20;fontSize=14;" vertex="1" parent="1">
          <mxGeometry x="40" y="-230" width="250" height="260" as="geometry" />
        </mxCell>
        <mxCell id="kfiKCnte5NvMrX8001Sx-26" value="Image cap" style="html=1;shadow=0;dashed=0;shape=mxgraph.bootstrap.topButton;rSize=5;perimeter=none;whiteSpace=wrap;fillColor=#868E96;strokeColor=#DFDFDF;fontColor=#DEE2E6;resizeWidth=1;fontSize=18;" vertex="1" parent="kfiKCnte5NvMrX8001Sx-25">
          <mxGeometry width="490" height="400" relative="1" as="geometry" />
        </mxCell>
        <mxCell id="kfiKCnte5NvMrX8001Sx-28" value="fundador" style="text;html=1;strokeColor=none;fillColor=none;align=center;verticalAlign=middle;whiteSpace=wrap;rounded=0;" vertex="1" parent="1">
          <mxGeometry x="710" y="-240" width="210" height="50" as="geometry" />
        </mxCell>
        <mxCell id="kfiKCnte5NvMrX8001Sx-29" value="&lt;h1&gt;&lt;br&gt;&lt;/h1&gt;&lt;p&gt;Lorem ipsum dolor sit amet, consectetur adipisicing elit, sed do eiusmod tempor incididunt ut labore et dolore magna aliqua.&lt;/p&gt;" style="text;html=1;strokeColor=none;fillColor=none;spacing=5;spacingTop=-20;whiteSpace=wrap;overflow=hidden;rounded=0;" vertex="1" parent="1">
          <mxGeometry x="620" y="-190" width="390" height="360" as="geometry" />
        </mxCell>
        <mxCell id="kfiKCnte5NvMrX8001Sx-32" value="servicios" style="text;html=1;strokeColor=none;fillColor=none;align=center;verticalAlign=middle;whiteSpace=wrap;rounded=0;" vertex="1" parent="1">
          <mxGeometry x="330" y="200" width="470" height="60" as="geometry" />
        </mxCell>
        <mxCell id="kfiKCnte5NvMrX8001Sx-33" value="Some quick example text to build on the card title and make up the bulk of the card&#39;s content." style="html=1;shadow=0;dashed=0;shape=mxgraph.bootstrap.rrect;rSize=5;strokeColor=#DFDFDF;html=1;whiteSpace=wrap;fillColor=#ffffff;fontColor=#000000;verticalAlign=bottom;align=left;spacing=20;fontSize=14;" vertex="1" parent="1">
          <mxGeometry x="670" y="260" width="490" height="540" as="geometry" />
        </mxCell>
        <mxCell id="kfiKCnte5NvMrX8001Sx-34" value="Image cap" style="html=1;shadow=0;dashed=0;shape=mxgraph.bootstrap.topButton;rSize=5;perimeter=none;whiteSpace=wrap;fillColor=#868E96;strokeColor=#DFDFDF;fontColor=#DEE2E6;resizeWidth=1;fontSize=18;" vertex="1" parent="kfiKCnte5NvMrX8001Sx-33">
          <mxGeometry width="490" height="540" relative="1" as="geometry" />
        </mxCell>
        <mxCell id="kfiKCnte5NvMrX8001Sx-38" value="" style="endArrow=none;html=1;rounded=0;strokeColor=#FFFFFF;" edge="1" parent="1">
          <mxGeometry width="50" height="50" relative="1" as="geometry">
            <mxPoint x="30" y="450" as="sourcePoint" />
            <mxPoint x="80" y="460" as="targetPoint" />
          </mxGeometry>
        </mxCell>
        <mxCell id="kfiKCnte5NvMrX8001Sx-39" value="" style="endArrow=none;html=1;rounded=0;strokeColor=#FFFFFF;" edge="1" parent="1">
          <mxGeometry width="50" height="50" relative="1" as="geometry">
            <mxPoint x="590" y="505.7272727272725" as="sourcePoint" />
            <mxPoint x="590" y="524.2727272727275" as="targetPoint" />
          </mxGeometry>
        </mxCell>
        <mxCell id="kfiKCnte5NvMrX8001Sx-42" value="" style="html=1;shadow=0;dashed=0;shape=mxgraph.bootstrap.rrect;rSize=5;strokeColor=#DFDFDF;html=1;whiteSpace=wrap;fillColor=#000000;fontColor=#000000;" vertex="1" parent="1">
          <mxGeometry x="110" y="260" width="465" height="480" as="geometry" />
        </mxCell>
        <mxCell id="kfiKCnte5NvMrX8001Sx-44" value="Dapibus ac facilisis in" style="strokeColor=inherit;fillColor=inherit;gradientColor=inherit;fontColor=inherit;html=1;shadow=0;dashed=0;perimeter=none;whiteSpace=wrap;resizeWidth=1;align=left;spacing=10;" vertex="1" parent="kfiKCnte5NvMrX8001Sx-42">
          <mxGeometry width="465" height="50" relative="1" as="geometry">
            <mxPoint y="40" as="offset" />
          </mxGeometry>
        </mxCell>
        <mxCell id="kfiKCnte5NvMrX8001Sx-45" value="Morbi leo risus" style="strokeColor=inherit;fillColor=inherit;gradientColor=inherit;fontColor=inherit;html=1;shadow=0;dashed=0;perimeter=none;whiteSpace=wrap;resizeWidth=1;align=left;spacing=10;" vertex="1" parent="kfiKCnte5NvMrX8001Sx-42">
          <mxGeometry width="465" height="80" relative="1" as="geometry">
            <mxPoint y="160" as="offset" />
          </mxGeometry>
        </mxCell>
        <mxCell id="kfiKCnte5NvMrX8001Sx-46" value="Porta ac consectetur ac" style="strokeColor=inherit;fillColor=inherit;gradientColor=inherit;fontColor=inherit;html=1;shadow=0;dashed=0;perimeter=none;whiteSpace=wrap;resizeWidth=1;align=left;spacing=10;" vertex="1" parent="kfiKCnte5NvMrX8001Sx-42">
          <mxGeometry width="465" height="70" relative="1" as="geometry">
            <mxPoint y="310" as="offset" />
          </mxGeometry>
        </mxCell>
        <mxCell id="kfiKCnte5NvMrX8001Sx-47" value="Vestibulum at eros" style="strokeColor=inherit;fillColor=inherit;gradientColor=inherit;fontColor=inherit;html=1;shadow=0;dashed=0;shape=mxgraph.bootstrap.bottomButton;rSize=5;perimeter=none;whiteSpace=wrap;resizeWidth=1;resizeHeight=0;align=left;spacing=10;" vertex="1" parent="kfiKCnte5NvMrX8001Sx-42">
          <mxGeometry y="1" width="465" height="71" relative="1" as="geometry">
            <mxPoint y="-71" as="offset" />
          </mxGeometry>
        </mxCell>
        <mxCell id="kfiKCnte5NvMrX8001Sx-49" value="lista de precios" style="html=1;shadow=0;dashed=0;shape=mxgraph.bootstrap.rrect;rSize=5;strokeColor=none;strokeWidth=1;fillColor=#6C767D;fontColor=#FFFFFF;whiteSpace=wrap;align=center;verticalAlign=middle;spacingLeft=0;fontStyle=0;fontSize=16;spacing=5;" vertex="1" parent="1">
          <mxGeometry x="260" y="750" width="190" height="40" as="geometry" />
        </mxCell>
      </root>
    </mxGraphModel>
  </diagram>
</mxfile>
